<svg version="1" xmlns="http://www.w3.org/2000/svg" width="1365.333" height="1365.333" viewBox="0 0 1024.000000 1024.000000"><path d="M489.6 47c-88.4 6.2-168.7 42-231.5 103.4C204 203.4 168 270.8 154.6 344c-4.6 25.2-5.9 39.7-5.9 67 0 58.2 11.8 109.3 37.3 161.5 13.6 27.7 29.7 51.9 52.3 78.3l8.9 10.4-1.8 13.6c-2.1 16.3-2.4 48.6-.5 63.7 7 56.7 29.9 108 66.6 149.4 4.1 4.6 7.5 9.2 7.5 10.2 0 1.1.7 1.9 1.8 1.9.9 0 6 3.9 11.2 8.6 41.8 37.6 91.2 60.3 148.2 68 16.7 2.3 49.9 2.3 66.6 0 57-7.7 106.4-30.4 148.2-68 5.9-5.3 10.4-8.6 11.8-8.6 1.7 0 2.2-.6 2.2-2.5 0-1.6 2.2-4.9 6.6-9.7 35.7-39.4 59.6-93 66.5-149.3 1.9-15.4 1.6-46.5-.5-63.6l-1.8-14.6 11.6-13.9c48.7-58.1 76.8-124.8 84.8-201.4 1.5-14.8 1.5-53.2 0-68-5.8-55.5-22.4-106.5-49.5-152C767 125 663.8 59.3 548.5 48.1c-15.4-1.5-44.6-2-58.9-1.1zM359.5 680.5c5.8 3.6 11.1 10.1 12.3 15.3.5 2 1.4 10.2 2.1 18.2.6 8.9 2.1 18.6 3.7 24.9 13.7 54.3 57.2 94.8 112.7 104.8 12.2 2.2 35.2 2.2 47.4 0 41.3-7.5 75.7-31.3 97.6-67.6 10.6-17.4 17.1-38.8 18.8-62.1.7-8 1.6-16.2 2.1-18.2 1.2-5.2 6.5-11.7 12.2-15.3 6.5-4 17-4.7 23.8-1.7 6.2 2.7 11.3 7.5 14.2 13.4 2.3 4.6 2.6 6.4 2.6 16.3 0 83.1-59.1 160.6-140.2 183.9-30.3 8.7-63.6 10.1-93.6 4C385.7 878 319 797.8 319 708.5c0-9.9.3-11.7 2.6-16.3 2.9-5.8 7.8-10.6 13.8-13.4 3.1-1.4 5.9-1.8 11.7-1.6 6.4.3 8.3.8 12.4 3.3z"/></svg>